<?xml version="1.0" encoding="UTF-8"?>
<svg xmlns="http://www.w3.org/2000/svg" viewBox="0 0 5140 3550" width="514" height="355">
  <g transform="translate(0,3550) scale(1,-1)" fill="#00ff87" stroke="none">
    <path d="M2061 1645 c9 -8 470 -125 494 -125 24 0 485 117 494 125 2 3 -220 5
-494 5 -274 0 -496 -2 -494 -5z"/>
    <path d="M1980 1637 c0 -3 5 -29 11 -56 10 -48 12 -51 37 -45 46 11 97 38 100
55 2 12 -11 19 -50 28 -29 6 -63 14 -75 17 -13 4 -23 4 -23 1z"/>
    <path d="M3048 1623 c-62 -16 -73 -33 -35 -57 24 -15 105 -28 111 -18 2 4 7
26 11 50 8 49 6 49 -87 25z"/>
    <path d="M2338 1539 c6 -7 12 -17 12 -22 0 -12 -138 -2 -191 14 -29 9 -48 9
-84 -1 -25 -7 -47 -16 -50 -20 -2 -3 41 -46 97 -95 117 -103 93 -105 242 22
l97 82 -38 10 c-89 23 -99 24 -85 10z"/>
    <path d="M2715 1536 c-22 -6 -39 -15 -38 -19 5 -13 208 -197 218 -197 14 0
210 198 203 205 -9 10 -130 7 -187 -4 -64 -13 -141 -14 -141 -3 0 4 5 13 12
20 16 16 -12 15 -67 -2z"/>
    <path d="M2461 1462 c-12 -23 -21 -45 -21 -48 0 -12 72 -34 110 -34 48 0 128
18 136 31 3 5 -5 28 -18 51 l-23 43 -82 0 -81 0 -21 -43z"/>
    <path d="M2750 1338 c39 -73 85 -161 103 -195 17 -35 35 -63 41 -63 5 0 6 22
2 53 -3 28 -6 75 -6 102 l0 50 -97 93 c-53 50 -100 92 -105 92 -5 0 23 -60 62
-132z"/>
    <path d="M2328 1384 c-69 -59 -88 -82 -92 -107 -9 -61 -17 -177 -12 -177 11 0
112 159 158 249 71 138 68 140 -54 35z"/>
    <path d="M2401 1341 c-11 -27 -21 -53 -21 -58 0 -4 -21 -35 -45 -67 -25 -33
-43 -61 -41 -64 5 -4 108 51 135 72 11 8 8 13 -13 21 -20 8 14 11 145 11 94 0
161 -3 150 -8 -12 -4 -21 -10 -21 -12 0 -8 124 -86 128 -81 2 2 -24 56 -58
120 -49 92 -66 115 -79 110 -9 -4 -44 -12 -79 -18 -59 -11 -101 -6 -163 18
-12 4 -21 -6 -38 -44z"/>
    <path d="M2500 1211 c0 -4 15 -22 33 -39 l33 -32 21 22 c39 44 39 51 2 46 -19
-3 -46 -2 -61 3 -16 4 -28 4 -28 0z"/>
    <path d="M2612 1165 l-50 -56 -43 50 c-24 28 -50 51 -58 51 -19 0 -181 -91
-181 -102 0 -17 38 -7 106 29 l72 37 53 -41 53 -41 49 39 c27 21 54 39 59 39
4 0 37 -18 72 -40 62 -39 96 -50 96 -30 0 9 -135 105 -164 116 -8 3 -34 -18
-64 -51z"/>
    <path d="M2346 1093 c-24 -13 -26 -17 -15 -28 41 -40 224 -185 231 -183 4 2
59 44 123 93 l116 90 -23 18 c-22 19 -23 18 -45 -9 -20 -25 -28 -28 -65 -25
-75 6 -172 5 -208 -3 -33 -7 -37 -5 -60 27 -25 34 -26 35 -54 20z"/>
    <path d="M2205 988 c-11 -38 -76 -371 -73 -382 3 -14 206 93 222 117 6 9 -15
56 -64 145 -39 73 -74 132 -76 132 -3 0 -6 -6 -9 -12z"/>
    <path d="M2250 986 c0 -10 130 -245 138 -250 12 -6 144 18 144 27 -1 7 -82 73
-269 220 -7 5 -13 6 -13 3z"/>
    <path d="M2858 910 c-25 -47 -57 -108 -71 -136 l-26 -52 102 -53 c56 -30 94
-55 86 -57 -9 -2 -58 11 -110 27 -137 44 -180 52 -290 52 -92 1 -107 -2 -253
-51 -85 -28 -160 -57 -166 -65 -21 -25 9 -27 98 -6 211 48 399 52 640 10 68
-11 125 -19 127 -17 6 6 -24 162 -58 298 l-33 135 -46 -85z"/>
    <path d="M2726 874 c-75 -58 -134 -109 -131 -113 10 -10 139 -30 147 -23 13
14 129 234 125 238 -2 2 -66 -43 -141 -102z"/>
  </g>
</svg>