<svg version="1.1" id="Layer_1" xmlns="http://www.w3.org/2000/svg" xmlns:xlink="http://www.w3.org/1999/xlink" x="0px" y="0px"
	 width="100%" viewBox="0 0 514 355" enable-background="new 0 0 514 355" xml:space="preserve">
<path fill="none" stroke="#000000" stroke-width="1" opacity="1.000000" stroke="#000000" stroke-width="1" 
	d="
M340.000000,356.000000 
	C226.699097,356.000000 113.898178,356.000000 1.048635,356.000000 
	C1.048635,237.733109 1.048635,119.466194 1.048635,1.099640 
	C172.217621,1.099640 343.435303,1.099640 514.826538,1.099640 
	C514.826538,119.333130 514.826538,237.666534 514.826538,356.000000 
	C456.799438,356.000000 398.649719,356.000000 340.000000,356.000000 
M351.422241,156.846878 
	C351.692352,156.653229 351.845734,156.391251 351.933838,155.282440 
	C351.916473,154.502884 351.899078,153.723343 351.733887,152.458527 
	C351.498871,152.216309 351.263824,151.974106 350.998932,151.129822 
	C350.952362,150.730804 350.905762,150.331772 350.708740,149.470032 
	C350.525085,149.195541 350.294922,148.968124 349.920166,148.184921 
	C349.589844,147.445129 349.259521,146.705322 349.008362,145.269455 
	C348.702789,144.428757 348.397247,143.588043 348.017395,142.348480 
	C348.017395,142.348480 347.913361,141.956314 347.745453,141.471832 
	C347.504913,141.229980 347.264374,140.988129 346.997223,140.141785 
	C346.955109,139.740723 346.912964,139.339661 346.722076,138.463547 
	C346.536530,138.181396 346.303833,137.945847 345.996613,137.164352 
	C345.953979,136.771332 345.911377,136.378326 345.745483,135.453568 
	C345.454895,134.991959 345.164276,134.530350 344.899231,133.503525 
	C344.889618,133.315155 344.880035,133.126801 344.721527,132.464005 
	C344.536072,132.182220 344.303467,131.947052 343.996948,131.150482 
	C343.955811,130.746933 343.914673,130.343384 343.724823,129.462326 
	C343.491516,129.225143 343.258240,128.987946 342.998016,128.144501 
	C342.956573,127.742157 342.915131,127.339806 342.717529,126.436333 
	C342.486511,126.172989 342.255493,125.909637 342.029999,125.315689 
	C342.029999,125.315689 341.978455,124.989067 341.945709,124.359390 
	C341.656525,123.813377 341.367340,123.267365 341.052612,122.353645 
	C341.052612,122.353645 340.983429,121.991615 340.950378,121.363373 
	C340.658875,120.821083 340.367401,120.278786 340.059113,119.368126 
	C340.059113,119.368126 340.006531,119.003143 340.015259,118.355034 
	C339.707428,117.814606 339.399597,117.274178 338.950226,116.092621 
	C338.605652,115.058495 338.261078,114.024368 337.776672,112.456093 
	C337.478516,111.991913 337.180359,111.527740 336.902313,110.532021 
	C336.890900,110.355064 336.879517,110.178116 336.751953,109.470589 
	C336.560028,108.334793 336.368103,107.198990 336.802612,106.006744 
	C337.219635,105.963676 337.636658,105.920609 338.502045,105.733063 
	C338.772095,105.549599 338.964233,105.304939 339.007477,105.071274 
	C339.007477,105.071274 339.079712,105.142265 339.746735,105.048058 
	C340.608002,104.752777 341.469269,104.457489 342.330536,104.162201 
	C341.589203,103.049759 340.847870,101.937317 339.749084,100.288612 
	C337.902740,98.502777 336.056396,96.716934 333.980560,94.302551 
	C333.010101,93.463081 332.039642,92.623611 330.857880,91.433372 
	C330.685272,91.214134 330.471680,91.047356 329.966553,90.348000 
	C329.328064,89.844002 328.689606,89.340012 327.978271,88.907349 
	C327.978271,88.907349 328.049561,88.980247 327.871124,88.491859 
	C327.585632,88.310066 327.300140,88.128265 326.999603,88.000587 
	C326.999603,88.000587 327.052551,87.981880 326.859161,87.525063 
	C326.656860,87.232002 326.378174,87.072113 325.634674,86.749924 
	C326.217133,86.189651 326.804596,85.150948 327.381104,85.157021 
	C329.259583,85.176804 331.134003,85.578163 333.593903,85.967613 
	C337.369507,85.599747 337.369507,85.599747 334.052521,80.845093 
	C334.052521,80.845093 334.045013,80.989243 333.853210,80.466362 
	C333.580658,80.217377 333.308105,79.968391 332.678131,79.207855 
	C331.425385,77.791824 330.172607,76.375801 328.754211,74.466797 
	C328.512085,74.219612 328.269958,73.972435 327.766144,73.297653 
	C327.270813,72.854080 326.775452,72.410507 325.933929,71.496468 
	C325.626129,71.261543 325.318329,71.026619 324.965607,70.370529 
	C324.965607,70.370529 324.892120,69.953400 324.752808,69.504036 
	C324.573517,69.228355 324.326569,69.042549 324.005920,69.006447 
	C324.005920,69.006447 324.063599,68.989426 323.878632,68.501205 
	C323.592560,68.317795 323.306488,68.134392 323.107208,68.026237 
	C323.107208,68.026237 323.182465,67.939453 322.986084,67.326294 
	C322.346069,66.809799 321.706024,66.293304 320.806274,65.311760 
	C320.518677,64.865601 320.231079,64.419441 319.790436,63.463978 
	C319.538605,63.216591 319.286743,62.969204 318.843658,62.403828 
	C318.685394,62.205505 318.488403,62.059441 317.933380,61.580696 
	C317.703400,61.317310 317.414978,61.163795 316.729553,60.704712 
	C317.153107,60.081215 317.576660,59.457722 318.717224,58.874325 
	C319.719147,58.103588 320.721100,57.332848 321.723022,56.562103 
	C320.482544,55.741016 319.242035,54.919930 317.637878,54.008965 
	C317.637878,54.008965 317.266052,53.963650 316.936066,53.568272 
	C316.640442,53.406357 316.344788,53.244442 315.654510,53.003597 
	C315.654510,53.003597 315.253876,52.965111 314.928802,52.571606 
	C314.636353,52.410034 314.343903,52.248459 313.483551,51.824982 
	C312.335846,51.373497 311.188110,50.922016 309.900513,49.886238 
	C309.616913,49.620140 309.333282,49.354042 308.458313,48.803150 
	C307.018311,47.869286 305.578339,46.935421 303.865204,45.528065 
	C303.563385,45.334366 303.261536,45.140663 303.005341,45.022179 
	C303.005341,45.022179 303.080566,44.976555 302.690002,44.400532 
	C296.392517,40.296505 289.683533,37.510521 281.960754,38.025639 
	C281.960754,38.025639 282.054077,38.037941 281.855408,37.519054 
	C281.568359,37.291836 281.281342,37.064613 280.998535,36.049278 
	C279.990814,33.328064 278.983093,30.606852 277.409882,28.208778 
	C276.939514,29.139406 276.469147,30.070034 275.947296,31.331430 
	C275.947296,31.331430 275.959473,31.665958 275.484222,31.994507 
	C275.320984,32.331184 275.157745,32.667866 274.944824,33.374725 
	C274.944824,33.374725 274.947449,33.748215 274.431580,33.442760 
	C273.988525,32.591095 273.545441,31.739426 273.030090,30.917824 
	C273.030090,30.917824 273.060120,30.990133 272.717804,30.466604 
	C272.141602,30.233852 271.565430,30.001099 270.567505,29.269297 
	C267.129242,26.490108 263.690979,23.710920 259.678802,20.427822 
	C259.123291,21.511814 258.090668,22.593145 258.084625,23.680204 
	C258.007935,37.432922 258.079071,51.186459 257.995728,65.625282 
	C258.005341,66.087852 258.014954,66.550423 257.963440,67.673080 
	C257.977478,72.349991 258.002960,77.026894 258.003601,81.703804 
	C258.006836,106.274445 258.060364,130.845428 257.905701,155.415115 
	C257.891968,157.602081 256.510590,159.780441 255.329041,162.025162 
	C255.329041,162.025162 254.913727,162.169876 254.462540,161.902206 
	C254.276428,161.610077 254.090302,161.317963 254.057770,160.647827 
	C254.057770,160.647827 254.169296,160.255371 254.778778,160.179596 
	C255.183838,160.121613 255.588898,160.063629 256.703430,159.515778 
	C256.805237,157.535751 256.993378,155.555832 256.995819,153.575684 
	C257.027618,127.709656 257.033112,101.843605 256.886871,75.258057 
	C256.319733,73.445816 255.752579,71.633575 255.226105,69.303040 
	C255.483017,68.870567 255.739914,68.438095 256.511536,67.898796 
	C256.646881,67.596924 256.782227,67.295059 256.959381,66.057533 
	C256.967621,52.006371 256.988678,37.955193 256.972565,23.904058 
	C256.969574,21.294159 256.900482,21.294239 254.157791,21.207216 
	C251.423462,23.500704 248.689133,25.794189 245.471634,28.193293 
	C245.172699,28.381720 244.995636,28.650455 245.005966,29.013050 
	C245.005966,29.013050 245.011841,28.946386 244.476868,29.131960 
	C244.233154,29.415764 243.989441,29.699568 243.298721,30.256029 
	C242.852661,30.785366 242.406616,31.314703 241.505310,32.251675 
	C241.018707,33.100761 240.532104,33.949848 239.973450,34.347267 
	C239.973450,34.347267 239.851898,33.906349 239.694687,33.454147 
	C239.503342,33.192883 239.271698,32.974331 238.959427,32.349102 
	C238.959427,32.349102 238.855606,31.910013 238.553391,31.412098 
	C238.203049,31.256622 237.852722,31.101149 237.252701,30.479826 
	C236.775208,30.514936 236.297714,30.550047 235.871857,30.603437 
	C235.871857,30.603437 235.915604,30.569857 236.437134,30.111572 
	C236.437134,28.832211 236.437134,27.552849 236.437134,26.273487 
	C236.075684,26.292101 235.714233,26.310717 235.352783,26.329330 
	C235.200165,27.527260 235.047562,28.725191 234.337692,30.382845 
	C234.244217,31.571167 234.150757,32.759491 233.967270,34.337505 
	C233.967270,34.337505 233.950195,34.737091 233.386566,35.242302 
	C231.363251,36.494690 229.474014,38.131645 227.280670,38.896435 
	C224.856293,39.741787 221.925140,39.272003 219.619705,40.291180 
	C214.957321,42.352310 210.444153,44.831676 206.105865,47.520088 
	C202.547409,49.725243 199.331223,52.482735 195.388351,55.264980 
	C189.316055,60.319420 199.249039,57.766632 197.503998,60.235180 
	C190.938644,68.246178 184.373291,76.257179 177.807938,84.268181 
	C178.091049,84.823395 178.374161,85.378601 178.657257,85.933815 
	C182.467194,85.549469 186.277115,85.165131 190.400986,85.165901 
	C190.198532,85.764076 189.996063,86.362251 189.437241,87.175354 
	C189.214935,87.356468 189.062119,87.584206 188.344467,88.078979 
	C187.524597,89.047813 186.704712,90.016640 185.321411,91.279617 
	C183.876907,92.816383 182.432404,94.353149 180.363220,96.077156 
	C179.521790,96.709183 178.680359,97.341209 177.279922,98.290047 
	C175.657288,100.019852 174.034637,101.749657 172.047409,103.868134 
	C174.641815,105.156746 176.483444,106.071465 178.556076,107.100922 
	C177.838455,109.479065 177.256439,111.701843 176.500748,113.863907 
	C172.043976,126.614784 167.563568,139.357498 163.048416,152.087799 
	C162.186569,154.517746 161.988205,156.614548 165.229080,158.327301 
	C165.803253,158.531509 166.377426,158.735718 167.313797,159.039352 
	C167.313797,159.039352 167.687485,159.076904 168.008316,159.573135 
	C168.686569,160.710693 169.364807,161.848251 169.959885,163.357285 
	C169.959885,163.357285 169.941940,163.737518 169.429565,164.208618 
	C168.962433,165.468948 168.495316,166.729279 167.959396,168.376495 
	C167.959396,168.376495 167.946259,168.769241 167.446213,169.241058 
	C166.854141,170.956284 164.588699,172.826477 168.016891,174.100769 
	C168.016891,174.100769 167.937805,173.987427 168.118637,174.492889 
	C168.412018,174.682846 168.705399,174.872787 168.972290,175.008820 
	C168.972290,175.008820 168.933304,175.054504 169.219177,175.546280 
	C169.664886,175.392899 170.110596,175.239532 170.981827,175.642593 
	C171.776413,175.442642 172.570999,175.242691 173.307800,175.039459 
	C173.307800,175.039459 173.325500,175.095657 172.654907,175.245148 
	C172.388794,175.827454 172.122696,176.409760 171.961838,177.728439 
	C171.938004,178.470825 171.914169,179.213211 171.505539,180.156189 
	C171.263016,180.332733 171.094391,180.563309 170.634064,181.116882 
	C170.378784,181.307800 170.224014,181.560303 169.849136,182.402008 
	C169.232849,183.220490 168.616547,184.038956 167.637024,185.121628 
	C167.383453,185.309631 167.229843,185.559143 166.871719,186.399765 
	C166.528381,186.904114 166.185043,187.408463 165.474258,188.149231 
	C165.242477,188.337936 165.073380,188.571945 164.443237,189.167053 
	C164.283661,190.714615 164.124100,192.262192 164.623489,193.892914 
	C165.686279,193.661530 166.749054,193.430145 167.883499,193.780472 
	C167.891876,194.170242 167.900269,194.560013 167.973740,194.990250 
	C167.973740,194.990250 168.014175,194.925171 167.509277,195.096848 
	C167.341705,195.395996 167.174133,195.695160 166.932785,196.327042 
	C166.932785,196.327042 166.961609,196.666641 166.503799,197.111664 
	C166.359482,197.717606 166.215164,198.323547 165.975845,199.289352 
	C165.975845,199.289352 165.988647,199.661316 165.552612,200.014420 
	C165.377319,200.334732 165.202026,200.655029 164.950363,201.291595 
	C164.950363,201.291595 164.985443,201.615067 164.536179,201.986084 
	C164.360733,202.321274 164.185287,202.656479 163.936188,203.334732 
	C163.936188,203.334732 163.962769,203.684616 163.504333,204.126251 
	C163.357071,204.730164 163.209808,205.334061 162.960175,206.308350 
	C162.960175,206.308350 162.954788,206.692596 162.403564,207.173996 
	C161.242004,210.119965 160.080429,213.065918 158.985962,215.991821 
	C158.985962,215.991821 158.964569,215.925140 158.372086,216.199081 
	C158.002136,217.421310 157.632187,218.643539 157.114838,220.496292 
	C157.067688,220.925262 157.020554,221.354233 156.591431,222.089264 
	C156.331802,222.311050 156.176514,222.590744 155.860703,223.496948 
	C155.565979,224.267914 155.271240,225.038895 154.601166,226.103577 
	C154.346130,226.317642 154.193954,226.589294 154.060760,227.541748 
	C154.032654,227.959961 154.004547,228.378174 153.591888,229.099426 
	C153.331924,229.319717 153.172699,229.597672 152.844421,230.480621 
	C152.548996,231.225098 152.253571,231.969574 151.568420,233.047302 
	C151.414398,233.344711 151.260376,233.642136 151.034134,234.564255 
	C151.000549,234.982147 150.966965,235.400040 150.452057,236.272797 
	C149.861557,238.433502 145.562485,241.617371 152.570328,242.132950 
	C153.386383,242.367447 154.202454,242.601959 155.821976,242.936447 
	C158.485596,243.935165 161.149216,244.933868 163.464645,246.139877 
	C163.245361,246.308853 163.081345,246.520630 162.585938,247.086594 
	C162.323746,247.311920 162.164719,247.595154 162.022064,248.356262 
	C162.022064,248.356262 161.973419,248.782349 161.588013,249.090576 
	C161.326828,249.313965 161.168457,249.595230 161.024826,250.359329 
	C161.024826,250.359329 160.974075,250.790329 160.595734,251.092102 
	C160.338135,251.311081 160.185379,251.587891 160.056396,252.540039 
	C160.028900,252.954300 160.001404,253.368561 159.585068,254.092819 
	C159.322418,254.317627 159.160873,254.600220 159.012085,255.340500 
	C159.012085,255.340500 158.965958,255.747421 158.580109,256.067596 
	C158.425278,256.356384 158.270432,256.645203 157.855881,257.508575 
	C157.565369,258.286377 157.274841,259.064148 156.613159,260.122375 
	C156.361649,260.328033 156.209610,260.591156 156.066315,261.536072 
	C156.036118,261.955566 156.005905,262.375031 155.595352,263.095886 
	C155.337128,263.314789 155.182007,263.591461 154.873520,264.391541 
	C154.566101,264.823914 154.258682,265.256287 153.557129,266.032471 
	C153.402756,266.337158 153.248367,266.641846 153.053131,267.782440 
	C153.098541,268.896179 153.143951,270.009918 153.322174,271.543732 
	C153.503311,271.788422 153.738190,271.959229 154.021271,271.967896 
	C154.021271,271.967896 153.932999,271.973358 154.134308,272.475677 
	C154.429199,272.669922 154.724091,272.864197 155.018463,272.981232 
	C155.018463,272.981232 154.941223,272.981720 155.139297,273.481140 
	C155.432571,273.673492 155.725845,273.865845 156.018890,273.981049 
	C156.018890,273.981049 155.941711,273.981201 156.140381,274.479797 
	C156.432785,274.673004 156.725189,274.866211 157.016083,274.982605 
	C157.016083,274.982605 156.939285,274.984070 157.124481,275.490906 
	C157.419144,275.682526 157.713791,275.874146 158.012741,275.989227 
	C158.012741,275.989227 157.936203,275.984894 158.099625,276.540344 
	C158.394104,276.782379 158.688583,277.024445 159.284286,277.736908 
	C160.072144,278.162415 160.860001,278.587921 162.019272,279.475159 
	C162.355972,279.667755 162.692673,279.860321 163.017273,279.973480 
	C163.017273,279.973480 162.937836,279.985535 163.126801,280.491577 
	C163.422897,280.681671 163.718994,280.871765 164.014725,280.985077 
	C164.014725,280.985077 163.937943,280.985413 164.127197,281.491516 
	C164.423691,281.681122 164.720200,281.870758 165.017441,281.983215 
	C165.017441,281.983215 164.940292,281.982422 165.137268,282.482208 
	C165.429977,282.675354 165.722687,282.868500 166.011780,282.985443 
	C166.011780,282.985443 165.935547,282.988983 166.108643,283.507141 
	C166.410751,283.691956 166.712860,283.876801 167.021133,283.984131 
	C167.021133,283.984131 166.943634,283.977936 167.165466,284.466766 
	C167.455261,284.668091 167.745056,284.869446 168.003326,284.972778 
	C168.003326,284.972778 167.905289,285.004242 168.259720,285.560760 
	C169.177643,286.064087 170.095566,286.567444 171.021973,286.990356 
	C171.021973,286.990356 170.941574,286.981873 171.131195,287.486786 
	C171.426056,287.678284 171.720917,287.869781 172.015396,287.984375 
	C172.015396,287.984375 171.938477,287.984741 172.130722,288.488464 
	C172.425980,288.679108 172.721237,288.869781 173.016785,288.983490 
	C173.016785,288.983490 172.939865,288.983185 173.136841,289.483276 
	C173.430222,289.675629 173.723602,289.868011 174.015579,289.983368 
	C174.015579,289.983368 173.938599,289.984711 174.126740,290.491638 
	C174.423615,290.680908 174.720490,290.870209 175.019257,290.982361 
	C175.019257,290.982361 174.942123,290.980408 175.149750,291.472717 
	C175.439957,291.667603 175.730164,291.862457 176.024811,291.978302 
	C176.024811,291.978302 175.945816,291.973846 176.133377,292.511749 
	C176.420227,292.755310 176.707062,292.998871 177.164169,293.579041 
	C177.318985,293.788483 177.519882,293.934540 178.052429,294.467499 
	C178.357086,294.630768 178.661743,294.794067 179.330948,295.024689 
	C179.330948,295.024689 179.701599,295.016205 180.043594,295.483734 
	C180.371643,295.673889 180.699692,295.864014 181.017395,295.974884 
	C181.017395,295.974884 180.938141,295.985199 181.128937,296.489807 
	C181.424362,296.680481 181.719772,296.871124 181.920074,297.012421 
	C181.920074,297.012421 181.870651,297.107544 182.223038,297.707275 
	C183.463760,299.556091 184.704498,301.404938 185.969925,303.952240 
	C186.011856,304.649841 186.053787,305.347443 186.240128,306.553802 
	C186.480408,306.811005 186.720688,307.068176 186.976532,308.005127 
	C187.016953,308.683777 187.057388,309.362396 187.230316,310.497528 
	C187.409836,310.779358 187.660904,310.963745 187.982361,310.986969 
	C187.982361,310.986969 187.920609,311.002899 187.887436,311.778961 
	C189.120453,313.579956 190.353455,315.380981 192.211334,316.994568 
	C192.509537,316.692657 192.807739,316.390717 193.056854,316.003723 
	C193.056854,316.003723 192.971741,316.052795 193.509445,315.851593 
	C193.763550,315.568420 194.017654,315.285248 194.600906,314.849640 
	C194.805939,314.703125 194.944351,314.509094 195.490479,313.946075 
	C195.678818,313.622070 195.867172,313.298035 195.976501,312.982971 
	C195.976501,312.982971 195.985413,313.061981 196.492279,312.872711 
	C196.681168,312.575439 196.870041,312.278168 196.892624,312.114624 
	C196.892624,312.114624 197.026306,312.280975 197.588104,312.523621 
	C198.697739,313.273010 199.807373,314.022400 201.393738,314.927704 
	C201.556671,314.965179 201.719604,315.002655 202.242462,315.590607 
	C203.482498,316.436554 204.722534,317.282501 206.187027,318.503326 
	C206.371140,318.737549 206.599426,318.914917 207.093262,319.624207 
	C207.717682,320.125214 208.342117,320.626221 209.183731,321.503296 
	C209.362686,321.737671 209.583282,321.922333 210.200699,322.632965 
	C211.890228,323.462585 213.579758,324.292236 215.269272,325.121887 
	C215.887650,323.760406 216.506027,322.398895 217.490601,321.035614 
	C217.490601,321.035614 217.856461,321.051605 218.059082,321.791077 
	C221.592209,324.919525 225.180618,325.225952 228.990906,321.547638 
	C228.990906,321.547638 229.138229,321.091339 229.504868,321.076447 
	C229.504868,321.076447 229.871719,321.083801 229.946167,321.866272 
	C230.019104,322.911407 230.092026,323.956573 230.395248,325.597748 
	C231.607025,326.365509 232.818787,327.133270 234.610138,327.582367 
	C234.730530,326.724396 234.850922,325.866425 235.053375,324.656647 
	C235.053375,324.656647 235.069916,324.295776 235.630508,324.215485 
	C236.103012,324.471985 236.575531,324.728455 237.056717,325.725586 
	C238.044479,327.082794 238.757629,328.856842 240.069946,329.721436 
	C244.544525,332.669312 249.230087,335.296936 254.386520,338.560730 
	C254.922363,337.131409 255.904495,335.708099 255.923843,334.271820 
	C256.086639,322.187073 256.073151,310.100006 256.697540,298.132599 
	C257.182770,298.455994 257.668030,298.779388 258.054596,300.022278 
	C258.036407,311.686737 257.973480,323.351532 258.071198,335.015015 
	C258.080658,336.145721 256.618134,339.000275 260.821381,337.934204 
	C265.884064,334.946503 270.946747,331.958801 276.666107,328.729706 
	C277.176025,324.818542 277.685944,320.907349 278.606903,317.690277 
	C278.794739,320.494080 278.982605,323.297882 279.305634,326.534393 
	C279.490356,326.787354 279.730316,326.966309 279.966583,326.992065 
	C279.966583,326.992065 279.887329,327.050934 280.230103,327.554291 
	C281.481750,327.371063 282.733398,327.187836 284.059906,326.661774 
	C284.059906,326.661774 284.075012,326.311157 284.596100,325.864288 
	C285.050995,324.638550 285.505890,323.412811 286.424591,322.775421 
	C289.625031,322.892426 292.825500,323.009430 296.491882,323.254669 
	C296.771790,323.429321 296.992340,323.660583 297.176086,324.519012 
	C297.929749,324.714264 298.683411,324.909515 299.823639,325.615845 
	C300.638245,325.092377 301.452850,324.568909 302.653412,324.033691 
	C302.653412,324.033691 303.031036,323.953003 303.520935,323.819519 
	C303.701019,323.541718 303.881073,323.263916 303.985260,322.983124 
	C303.985260,322.983124 303.982147,323.059021 304.481628,322.861084 
	C304.673706,322.567688 304.865784,322.274323 304.981018,321.981171 
	C304.981018,321.981171 304.981232,322.058014 305.480164,321.859650 
	C305.672852,321.566803 305.865540,321.273956 305.979309,320.973572 
	C305.979309,320.973572 305.971741,321.052490 306.510376,320.855133 
	C306.763519,320.571777 307.016663,320.288422 307.768616,319.980072 
	C308.183899,319.738892 308.599152,319.497711 309.489227,318.940033 
	C309.677734,318.617859 309.866241,318.295685 309.973328,317.971344 
	C309.973328,317.971344 309.971069,318.052826 310.527252,317.857086 
	C310.796448,317.572876 311.065643,317.288666 311.681946,317.026672 
	C311.681946,317.026672 312.024048,316.964050 312.520294,316.829041 
	C312.701447,316.547272 312.882599,316.265503 312.985657,315.973206 
	C312.985657,315.973206 312.975067,316.051270 313.447754,315.820221 
	C313.648468,315.538483 313.849152,315.256744 313.993652,315.046143 
	C313.993652,315.046143 314.064789,315.102417 314.614532,314.838440 
	C315.410736,313.977173 316.206909,313.115875 317.111542,312.086945 
	C317.111542,312.086945 316.943909,311.978485 317.147675,312.473297 
	C317.438477,312.668091 317.729279,312.862885 318.017761,312.980560 
	C318.017761,312.980560 317.940613,312.982819 318.127838,313.489594 
	C318.423584,313.680359 318.719299,313.871155 319.022583,313.982910 
	C319.022583,313.982910 318.943573,313.975281 319.132904,314.515503 
	C319.419647,314.762390 319.706360,315.009247 320.249451,315.710114 
	C320.777649,316.150665 321.305817,316.591217 322.122772,317.405792 
	C322.331116,317.671387 322.603973,317.807312 323.467010,318.016815 
	C324.603943,317.345276 325.740845,316.673737 326.945923,315.360626 
	C326.968170,314.931122 326.990417,314.501617 327.479462,313.705750 
	C327.639801,313.148499 327.800140,312.591248 328.039856,311.657745 
	C328.039856,311.657745 328.045807,311.273254 328.535278,310.859711 
	C328.676575,310.251770 328.817902,309.643860 329.039795,308.659760 
	C329.039795,308.659760 329.046051,308.275085 329.532745,307.860291 
	C329.673279,307.253540 329.813782,306.646820 330.036469,305.655487 
	C330.036469,305.655487 330.046722,305.262360 330.597046,304.715790 
	C331.442078,302.513763 332.287109,300.311768 333.556305,297.871338 
	C333.823212,297.663513 334.000366,297.396210 334.038177,297.010651 
	C334.038177,297.010651 333.979462,297.060211 334.480835,296.861755 
	C334.673340,296.567078 334.865814,296.272430 334.980530,295.982330 
	C334.980530,295.982330 334.985016,296.060120 335.556702,295.705200 
	C335.724884,295.296051 335.893036,294.886871 336.542847,294.548096 
	C336.875397,294.048370 337.207916,293.548645 338.188049,292.968201 
	C338.472046,292.661499 338.756073,292.354828 339.001099,292.001099 
	C339.001099,292.001099 339.043579,292.046265 339.534760,291.869568 
	C339.699890,291.574432 339.865021,291.279297 340.090393,290.651031 
	C340.090393,290.651031 340.121307,290.313873 340.691742,289.942017 
	C343.093292,287.296204 345.494873,284.650391 348.001617,281.668884 
	C348.001617,281.668884 348.061371,281.322235 348.515259,280.990234 
	C348.691711,280.667816 348.868164,280.345398 349.016052,280.158478 
	C349.016052,280.158478 349.151520,280.187073 349.732330,279.847809 
	C351.875824,277.254333 354.019287,274.660858 356.077057,271.992401 
	C356.077057,271.992401 356.002075,272.078033 356.426880,271.858032 
	C356.705231,271.661224 356.861206,271.393280 356.947662,270.182037 
	C356.923462,268.434937 356.899261,266.687836 356.726929,264.461182 
	C356.493286,264.222687 356.259613,263.984222 355.971558,263.006042 
	C355.594696,261.311951 355.217834,259.617889 354.688354,257.482086 
	C354.507843,257.220703 354.281860,257.007477 353.994690,256.115845 
	C353.954224,255.390488 353.913757,254.665115 353.724609,253.462585 
	C353.491425,253.225647 353.258209,252.988708 352.972046,252.013535 
	C352.602386,250.321884 352.232697,248.630219 351.716217,246.498306 
	C351.534668,246.234070 351.295044,246.042450 351.065826,245.992432 
	C351.065826,245.992432 351.134735,245.923904 351.104645,245.379807 
	C353.596985,244.588745 356.134521,243.914352 358.568115,242.971634 
	C360.723175,242.136841 362.762573,241.003540 364.897644,239.364487 
	C364.670746,238.569336 364.443878,237.774200 364.122131,236.333572 
	C364.054016,235.904465 363.985901,235.475372 363.793060,234.627548 
	C363.662842,234.356857 363.469696,234.143036 363.106964,233.296570 
	C362.762573,232.456100 362.418213,231.615616 362.035461,230.374359 
	C362.035461,230.374359 361.957397,229.979370 361.790802,229.475235 
	C361.537140,229.230545 361.283478,228.985855 360.997314,228.137100 
	C360.952820,227.736404 360.908325,227.335709 360.713989,226.467468 
	C360.529602,226.189987 360.298462,225.959366 359.994507,225.162674 
	C359.955322,224.755661 359.916138,224.348663 359.728851,223.460678 
	C359.494843,223.221237 359.260834,222.981796 358.929993,222.137024 
	C358.578156,221.404434 358.226318,220.671844 357.719604,219.469910 
	C357.533203,219.191162 357.300079,218.959351 356.992188,218.159653 
	C356.949799,217.751663 356.907410,217.343658 356.715363,216.466751 
	C356.530762,216.188416 356.299316,215.956909 355.924103,215.159836 
	C355.570770,214.417892 355.217438,213.675949 354.707550,212.476364 
	C354.522858,212.204910 354.292053,211.980927 353.963837,211.368805 
	C353.963837,211.368805 353.875397,210.939178 353.717133,210.474121 
	C353.530426,210.197952 353.297333,209.968994 352.918396,209.181259 
	C352.581726,208.439575 352.245056,207.697891 351.920502,206.329391 
	C351.644745,205.784714 351.369019,205.240036 351.076477,204.351105 
	C351.076477,204.351105 351.021790,204.010849 350.863007,203.455261 
	C350.590576,203.185516 350.318115,202.915756 350.040344,202.317932 
	C350.040344,202.317932 349.985962,201.994339 349.829712,201.512283 
	C349.557953,201.323792 349.286194,201.135315 349.138062,201.040283 
	C349.138062,201.040283 349.231506,200.916687 349.103394,200.225052 
	C348.100708,198.733704 347.097992,197.242355 345.681549,195.368866 
	C345.150299,195.189163 344.619080,195.009476 344.051392,194.333374 
	C345.035248,193.889008 346.019135,193.444641 347.540039,193.551636 
	C353.103943,194.346725 353.135529,194.326416 351.948181,190.347397 
	C351.823639,190.159912 351.650055,190.049591 350.988373,189.524612 
	C350.652710,189.243301 350.317078,188.961990 350.009186,188.318405 
	C350.009186,188.318405 349.931061,187.963577 349.755432,187.393951 
	C349.183441,186.840714 348.611420,186.287476 347.821747,185.254501 
	C347.526337,184.819138 347.230957,184.383774 346.781067,183.432755 
	C346.520935,183.187302 346.260773,182.941864 345.873810,182.372452 
	C345.736237,182.168915 345.546906,182.043350 344.933990,181.493500 
	C344.617188,181.224411 344.300385,180.955322 343.883209,180.377625 
	C343.763855,180.183044 343.594025,180.055801 342.997345,179.618698 
	C342.692566,179.448334 342.387756,179.277969 341.380310,179.029053 
	C340.910370,179.054626 340.440399,179.080185 339.414764,178.746796 
	C338.973602,177.562714 338.532440,176.378632 338.726990,175.436310 
	C342.017944,177.461411 344.927216,177.230896 347.680115,173.561951 
	C347.745941,173.021896 347.811768,172.481857 347.728668,171.461273 
	C347.494537,171.222137 347.260437,170.983002 346.999481,170.140778 
	C346.957703,169.740601 346.915924,169.340408 346.725677,168.461929 
	C346.492279,168.224274 346.258881,167.986603 346.002930,167.148239 
	C345.967377,166.749161 345.931854,166.350098 345.750854,165.450302 
	C345.512512,165.198151 345.274170,164.945999 344.948975,164.124893 
	C344.365723,163.395828 343.782501,162.666763 343.131622,161.319733 
	C343.132812,160.905441 343.134003,160.491165 343.867126,160.026001 
	C344.598907,159.975433 345.330688,159.924866 346.562164,159.717743 
	C346.824921,159.487411 347.087708,159.257095 347.662567,159.063843 
	C347.662567,159.063843 347.976593,159.050308 348.554413,158.911789 
	C348.828674,158.629959 349.102966,158.348129 349.695068,158.049011 
	C349.695068,158.049011 350.006744,157.984787 350.488312,157.820084 
	C350.681641,157.548523 350.874969,157.276962 351.003235,156.998581 
	C351.003235,156.998581 351.007690,157.063843 351.422241,156.846878 
z"/>
</svg>